<?xml version="1.0" standalone="no"?><!DOCTYPE svg PUBLIC "-//W3C//DTD SVG 1.1//EN" "http://www.w3.org/Graphics/SVG/1.1/DTD/svg11.dtd"><svg t="1596087917743" class="icon" viewBox="0 0 1024 1024" version="1.1" xmlns="http://www.w3.org/2000/svg" p-id="1177" xmlns:xlink="http://www.w3.org/1999/xlink" width="200" height="200"><defs><style type="text/css"></style></defs><path d="M1023.932164 489.630922a518.365658 518.365658 0 0 0-119.032114-304.619819A501.086803 501.086803 0 0 0 508.126337 0.063356a511.966082 511.966082 0 0 0-383.974562 172.788553A473.568626 473.568626 0 0 0 12.159194 403.236646a516.445785 516.445785 0 0 0 47.996821 344.937147A501.726761 501.726761 0 0 0 319.978801 986.238022a520.925489 520.925489 0 0 0 408.932909-8.319449 503.646633 503.646633 0 0 0 241.903973-234.86444 528.60498 528.60498 0 0 0 52.476524-255.983041m-563.802648 423.651933a383.974562 383.974562 0 0 1-289.900794-191.987281 383.974562 383.974562 0 0 1-51.836566-286.061049A420.452145 420.452145 0 0 1 255.983041 195.250425a419.17223 419.17223 0 0 1 203.506518-80.634658v191.987281H380.134816a122.231902 122.231902 0 0 0-111.352623 127.99152v169.588765A127.991521 127.991521 0 0 0 383.974562 723.855405h75.514997v186.86762m-63.99576-297.580286a17.918813 17.918813 0 0 1-21.758559-17.278855V428.83495s0-17.918813 17.278855-17.918813h232.944568a17.918813 17.918813 0 0 1 21.758558 17.918813v162.549231s4.479703 25.598304-14.079067 21.758558H395.493799m454.369898 122.231902a428.131636 428.131636 0 0 1-286.061049 174.708426v-185.587705h88.954107a127.991521 127.991521 0 0 0 99.833386-118.392156v-198.386857a127.991521 127.991521 0 0 0-119.672072-104.313089H563.802648V114.615767a387.17435 387.17435 0 0 1 213.105882 97.913513 412.772654 412.772654 0 0 1 127.99152 223.985161 429.411551 429.411551 0 0 1-57.596184 298.8602" fill="#BC1D21" p-id="1178"></path></svg>